<mxfile host="app.diagrams.net" modified="2023-06-24T01:34:37.304Z" agent="Mozilla/5.0 (Windows NT 10.0; Win64; x64) AppleWebKit/537.36 (KHTML, like Gecko) Chrome/113.0.0.0 Safari/537.36 OPR/99.0.0.0" etag="m_jXzl7unhwC3LAo2k6b" version="21.5.0" type="device">
  <diagram name="Page-1" id="-Ukos6SjJW5uyPa9sQ7s">
    <mxGraphModel dx="877" dy="478" grid="1" gridSize="10" guides="1" tooltips="1" connect="1" arrows="1" fold="1" page="1" pageScale="1" pageWidth="850" pageHeight="1100" math="0" shadow="1">
      <root>
        <mxCell id="0" />
        <mxCell id="1" parent="0" />
        <mxCell id="IEi7JNb95hjV7oVFbv9e-80" value="" style="group" parent="1" vertex="1" connectable="0">
          <mxGeometry x="80" y="25" width="710" height="1050" as="geometry" />
        </mxCell>
        <mxCell id="IEi7JNb95hjV7oVFbv9e-26" value="ADICIONAR / EDITAR ESTACIONAMENTOS /Â  ADMINISTRADOR" style="shape=table;startSize=40;container=1;collapsible=0;childLayout=tableLayout;strokeColor=default;fontSize=16;rounded=1;fontStyle=1" parent="IEi7JNb95hjV7oVFbv9e-80" vertex="1">
          <mxGeometry width="710" height="1050" as="geometry" />
        </mxCell>
        <mxCell id="IEi7JNb95hjV7oVFbv9e-71" style="shape=tableRow;horizontal=0;startSize=0;swimlaneHead=0;swimlaneBody=0;strokeColor=inherit;top=0;left=0;bottom=0;right=0;collapsible=0;dropTarget=0;fillColor=none;points=[[0,0.5],[1,0.5]];portConstraint=eastwest;fontSize=16;" parent="IEi7JNb95hjV7oVFbv9e-26" vertex="1">
          <mxGeometry y="40" width="710" height="90" as="geometry" />
        </mxCell>
        <mxCell id="IEi7JNb95hjV7oVFbv9e-72" value="&lt;b&gt;&lt;font style=&quot;font-size: 39px;&quot;&gt;ATOR&lt;/font&gt;&lt;/b&gt;" style="shape=partialRectangle;html=1;whiteSpace=wrap;connectable=0;strokeColor=inherit;overflow=hidden;fillColor=none;top=0;left=0;bottom=0;right=0;pointerEvents=1;fontSize=16;" parent="IEi7JNb95hjV7oVFbv9e-71" vertex="1">
          <mxGeometry width="360" height="90" as="geometry">
            <mxRectangle width="360" height="90" as="alternateBounds" />
          </mxGeometry>
        </mxCell>
        <mxCell id="IEi7JNb95hjV7oVFbv9e-73" value="&lt;font style=&quot;font-size: 39px;&quot;&gt;&lt;b&gt;SISTEMA&lt;/b&gt;&lt;/font&gt;" style="shape=partialRectangle;html=1;whiteSpace=wrap;connectable=0;strokeColor=inherit;overflow=hidden;fillColor=none;top=0;left=0;bottom=0;right=0;pointerEvents=1;fontSize=16;rowspan=1;colspan=2;" parent="IEi7JNb95hjV7oVFbv9e-71" vertex="1">
          <mxGeometry x="360" width="350" height="90" as="geometry">
            <mxRectangle width="113" height="90" as="alternateBounds" />
          </mxGeometry>
        </mxCell>
        <mxCell id="IEi7JNb95hjV7oVFbv9e-74" value="" style="shape=partialRectangle;html=1;whiteSpace=wrap;connectable=0;strokeColor=inherit;overflow=hidden;fillColor=none;top=0;left=0;bottom=0;right=0;pointerEvents=1;fontSize=16;" parent="IEi7JNb95hjV7oVFbv9e-71" vertex="1" visible="0">
          <mxGeometry x="473" width="237" height="90" as="geometry">
            <mxRectangle width="237" height="90" as="alternateBounds" />
          </mxGeometry>
        </mxCell>
        <mxCell id="IEi7JNb95hjV7oVFbv9e-27" value="" style="shape=tableRow;horizontal=0;startSize=0;swimlaneHead=0;swimlaneBody=0;strokeColor=inherit;top=0;left=0;bottom=0;right=0;collapsible=0;dropTarget=0;fillColor=none;points=[[0,0.5],[1,0.5]];portConstraint=eastwest;fontSize=16;" parent="IEi7JNb95hjV7oVFbv9e-26" vertex="1">
          <mxGeometry y="130" width="710" height="308" as="geometry" />
        </mxCell>
        <mxCell id="IEi7JNb95hjV7oVFbv9e-28" value="" style="shape=partialRectangle;html=1;whiteSpace=wrap;connectable=0;strokeColor=inherit;overflow=hidden;fillColor=none;top=0;left=0;bottom=0;right=0;pointerEvents=1;fontSize=16;rowspan=3;colspan=1;" parent="IEi7JNb95hjV7oVFbv9e-27" vertex="1">
          <mxGeometry width="360" height="920" as="geometry">
            <mxRectangle width="360" height="308" as="alternateBounds" />
          </mxGeometry>
        </mxCell>
        <mxCell id="IEi7JNb95hjV7oVFbv9e-29" value="" style="shape=partialRectangle;html=1;whiteSpace=wrap;connectable=0;strokeColor=inherit;overflow=hidden;fillColor=none;top=0;left=0;bottom=0;right=0;pointerEvents=1;fontSize=16;rowspan=3;colspan=2;" parent="IEi7JNb95hjV7oVFbv9e-27" vertex="1">
          <mxGeometry x="360" width="350" height="920" as="geometry">
            <mxRectangle width="113" height="308" as="alternateBounds" />
          </mxGeometry>
        </mxCell>
        <mxCell id="IEi7JNb95hjV7oVFbv9e-30" value="" style="shape=partialRectangle;html=1;whiteSpace=wrap;connectable=0;strokeColor=inherit;overflow=hidden;fillColor=none;top=0;left=0;bottom=0;right=0;pointerEvents=1;fontSize=16;" parent="IEi7JNb95hjV7oVFbv9e-27" vertex="1" visible="0">
          <mxGeometry x="473" width="237" height="308" as="geometry">
            <mxRectangle width="237" height="308" as="alternateBounds" />
          </mxGeometry>
        </mxCell>
        <mxCell id="IEi7JNb95hjV7oVFbv9e-31" value="" style="shape=tableRow;horizontal=0;startSize=0;swimlaneHead=0;swimlaneBody=0;strokeColor=inherit;top=0;left=0;bottom=0;right=0;collapsible=0;dropTarget=0;fillColor=none;points=[[0,0.5],[1,0.5]];portConstraint=eastwest;fontSize=16;" parent="IEi7JNb95hjV7oVFbv9e-26" vertex="1">
          <mxGeometry y="438" width="710" height="304" as="geometry" />
        </mxCell>
        <mxCell id="IEi7JNb95hjV7oVFbv9e-32" value="" style="shape=partialRectangle;html=1;whiteSpace=wrap;connectable=0;strokeColor=inherit;overflow=hidden;fillColor=none;top=0;left=0;bottom=0;right=0;pointerEvents=1;fontSize=16;" parent="IEi7JNb95hjV7oVFbv9e-31" vertex="1" visible="0">
          <mxGeometry width="360" height="304" as="geometry">
            <mxRectangle width="360" height="304" as="alternateBounds" />
          </mxGeometry>
        </mxCell>
        <mxCell id="IEi7JNb95hjV7oVFbv9e-33" value="" style="shape=partialRectangle;html=1;whiteSpace=wrap;connectable=0;strokeColor=inherit;overflow=hidden;fillColor=none;top=0;left=0;bottom=0;right=0;pointerEvents=1;fontSize=16;" parent="IEi7JNb95hjV7oVFbv9e-31" vertex="1" visible="0">
          <mxGeometry x="360" width="113" height="304" as="geometry">
            <mxRectangle width="113" height="304" as="alternateBounds" />
          </mxGeometry>
        </mxCell>
        <mxCell id="IEi7JNb95hjV7oVFbv9e-34" value="" style="shape=partialRectangle;html=1;whiteSpace=wrap;connectable=0;strokeColor=inherit;overflow=hidden;fillColor=none;top=0;left=0;bottom=0;right=0;pointerEvents=1;fontSize=16;autosize=0;" parent="IEi7JNb95hjV7oVFbv9e-31" vertex="1" visible="0">
          <mxGeometry x="473" width="237" height="304" as="geometry">
            <mxRectangle width="237" height="304" as="alternateBounds" />
          </mxGeometry>
        </mxCell>
        <mxCell id="IEi7JNb95hjV7oVFbv9e-35" value="" style="shape=tableRow;horizontal=0;startSize=0;swimlaneHead=0;swimlaneBody=0;strokeColor=inherit;top=0;left=0;bottom=0;right=0;collapsible=0;dropTarget=0;fillColor=none;points=[[0,0.5],[1,0.5]];portConstraint=eastwest;fontSize=16;" parent="IEi7JNb95hjV7oVFbv9e-26" vertex="1">
          <mxGeometry y="742" width="710" height="308" as="geometry" />
        </mxCell>
        <mxCell id="IEi7JNb95hjV7oVFbv9e-36" value="" style="shape=partialRectangle;html=1;whiteSpace=wrap;connectable=0;strokeColor=inherit;overflow=hidden;fillColor=none;top=0;left=0;bottom=0;right=0;pointerEvents=1;fontSize=16;" parent="IEi7JNb95hjV7oVFbv9e-35" vertex="1" visible="0">
          <mxGeometry width="360" height="308" as="geometry">
            <mxRectangle width="360" height="308" as="alternateBounds" />
          </mxGeometry>
        </mxCell>
        <mxCell id="IEi7JNb95hjV7oVFbv9e-37" value="" style="shape=partialRectangle;html=1;whiteSpace=wrap;connectable=0;strokeColor=inherit;overflow=hidden;fillColor=none;top=0;left=0;bottom=0;right=0;pointerEvents=1;fontSize=16;" parent="IEi7JNb95hjV7oVFbv9e-35" vertex="1" visible="0">
          <mxGeometry x="360" width="113" height="308" as="geometry">
            <mxRectangle width="113" height="308" as="alternateBounds" />
          </mxGeometry>
        </mxCell>
        <mxCell id="IEi7JNb95hjV7oVFbv9e-38" value="" style="shape=partialRectangle;html=1;whiteSpace=wrap;connectable=0;strokeColor=inherit;overflow=hidden;fillColor=none;top=0;left=0;bottom=0;right=0;pointerEvents=1;fontSize=16;" parent="IEi7JNb95hjV7oVFbv9e-35" vertex="1" visible="0">
          <mxGeometry x="473" width="237" height="308" as="geometry">
            <mxRectangle width="237" height="308" as="alternateBounds" />
          </mxGeometry>
        </mxCell>
        <mxCell id="IEi7JNb95hjV7oVFbv9e-156" style="edgeStyle=orthogonalEdgeStyle;rounded=0;orthogonalLoop=1;jettySize=auto;html=1;" parent="IEi7JNb95hjV7oVFbv9e-80" source="IEi7JNb95hjV7oVFbv9e-81" target="IEi7JNb95hjV7oVFbv9e-140" edge="1">
          <mxGeometry relative="1" as="geometry" />
        </mxCell>
        <mxCell id="IEi7JNb95hjV7oVFbv9e-81" value="\" style="ellipse;whiteSpace=wrap;html=1;aspect=fixed;fillColor=#000000;" parent="IEi7JNb95hjV7oVFbv9e-80" vertex="1">
          <mxGeometry x="160" y="140" width="60" height="60" as="geometry" />
        </mxCell>
        <mxCell id="IEi7JNb95hjV7oVFbv9e-123" style="edgeStyle=orthogonalEdgeStyle;rounded=0;orthogonalLoop=1;jettySize=auto;html=1;" parent="IEi7JNb95hjV7oVFbv9e-80" edge="1">
          <mxGeometry relative="1" as="geometry">
            <mxPoint x="200.0476190476188" y="550.0198412698412" as="sourcePoint" />
            <Array as="points">
              <mxPoint x="75" y="525" />
            </Array>
          </mxGeometry>
        </mxCell>
        <mxCell id="IEi7JNb95hjV7oVFbv9e-125" style="edgeStyle=orthogonalEdgeStyle;rounded=0;orthogonalLoop=1;jettySize=auto;html=1;" parent="IEi7JNb95hjV7oVFbv9e-80" edge="1">
          <mxGeometry relative="1" as="geometry">
            <mxPoint x="200.0476190476188" y="550.0198412698412" as="sourcePoint" />
            <Array as="points">
              <mxPoint x="287" y="525" />
            </Array>
          </mxGeometry>
        </mxCell>
        <mxCell id="IEi7JNb95hjV7oVFbv9e-126" style="edgeStyle=orthogonalEdgeStyle;rounded=0;orthogonalLoop=1;jettySize=auto;html=1;" parent="IEi7JNb95hjV7oVFbv9e-80" edge="1">
          <mxGeometry relative="1" as="geometry">
            <mxPoint x="200" y="600" as="sourcePoint" />
          </mxGeometry>
        </mxCell>
        <mxCell id="IEi7JNb95hjV7oVFbv9e-151" style="edgeStyle=orthogonalEdgeStyle;rounded=0;orthogonalLoop=1;jettySize=auto;html=1;" parent="IEi7JNb95hjV7oVFbv9e-80" source="IEi7JNb95hjV7oVFbv9e-136" target="IEi7JNb95hjV7oVFbv9e-138" edge="1">
          <mxGeometry relative="1" as="geometry">
            <Array as="points">
              <mxPoint x="85" y="475" />
            </Array>
          </mxGeometry>
        </mxCell>
        <mxCell id="IEi7JNb95hjV7oVFbv9e-154" style="edgeStyle=orthogonalEdgeStyle;rounded=0;orthogonalLoop=1;jettySize=auto;html=1;" parent="IEi7JNb95hjV7oVFbv9e-80" source="IEi7JNb95hjV7oVFbv9e-136" target="IEi7JNb95hjV7oVFbv9e-137" edge="1">
          <mxGeometry relative="1" as="geometry">
            <Array as="points">
              <mxPoint x="280" y="475" />
            </Array>
          </mxGeometry>
        </mxCell>
        <mxCell id="IEi7JNb95hjV7oVFbv9e-136" value="" style="rhombus;whiteSpace=wrap;html=1;" parent="IEi7JNb95hjV7oVFbv9e-80" vertex="1">
          <mxGeometry x="130" y="450" width="120" height="50" as="geometry" />
        </mxCell>
        <mxCell id="IEi7JNb95hjV7oVFbv9e-155" style="edgeStyle=orthogonalEdgeStyle;rounded=0;orthogonalLoop=1;jettySize=auto;html=1;" parent="IEi7JNb95hjV7oVFbv9e-80" source="IEi7JNb95hjV7oVFbv9e-137" target="IEi7JNb95hjV7oVFbv9e-139" edge="1">
          <mxGeometry relative="1" as="geometry" />
        </mxCell>
        <mxCell id="IEi7JNb95hjV7oVFbv9e-137" value="Escolhe um estacionamento para editar" style="rounded=0;whiteSpace=wrap;html=1;" parent="IEi7JNb95hjV7oVFbv9e-80" vertex="1">
          <mxGeometry x="215" y="505" width="130" height="60" as="geometry" />
        </mxCell>
        <mxCell id="IEi7JNb95hjV7oVFbv9e-163" style="edgeStyle=orthogonalEdgeStyle;rounded=0;orthogonalLoop=1;jettySize=auto;html=1;" parent="IEi7JNb95hjV7oVFbv9e-80" source="IEi7JNb95hjV7oVFbv9e-138" target="IEi7JNb95hjV7oVFbv9e-162" edge="1">
          <mxGeometry relative="1" as="geometry" />
        </mxCell>
        <mxCell id="IEi7JNb95hjV7oVFbv9e-138" value="Solicita adicionar&amp;nbsp; estacionamento" style="rounded=0;whiteSpace=wrap;html=1;" parent="IEi7JNb95hjV7oVFbv9e-80" vertex="1">
          <mxGeometry x="20" y="585" width="130" height="60" as="geometry" />
        </mxCell>
        <mxCell id="IEi7JNb95hjV7oVFbv9e-159" style="edgeStyle=orthogonalEdgeStyle;rounded=0;orthogonalLoop=1;jettySize=auto;html=1;" parent="IEi7JNb95hjV7oVFbv9e-80" source="IEi7JNb95hjV7oVFbv9e-139" target="IEi7JNb95hjV7oVFbv9e-158" edge="1">
          <mxGeometry relative="1" as="geometry" />
        </mxCell>
        <mxCell id="IEi7JNb95hjV7oVFbv9e-139" value="Busca dados completos do estacionamento" style="rounded=0;whiteSpace=wrap;html=1;" parent="IEi7JNb95hjV7oVFbv9e-80" vertex="1">
          <mxGeometry x="400" y="440" width="135" height="60" as="geometry" />
        </mxCell>
        <mxCell id="IEi7JNb95hjV7oVFbv9e-145" style="edgeStyle=orthogonalEdgeStyle;rounded=0;orthogonalLoop=1;jettySize=auto;html=1;" parent="IEi7JNb95hjV7oVFbv9e-80" source="IEi7JNb95hjV7oVFbv9e-140" target="IEi7JNb95hjV7oVFbv9e-141" edge="1">
          <mxGeometry relative="1" as="geometry" />
        </mxCell>
        <mxCell id="IEi7JNb95hjV7oVFbv9e-140" value="Solicita lista de estacionamentos cadastrados" style="rounded=0;whiteSpace=wrap;html=1;" parent="IEi7JNb95hjV7oVFbv9e-80" vertex="1">
          <mxGeometry x="70" y="230" width="240" height="60" as="geometry" />
        </mxCell>
        <mxCell id="IEi7JNb95hjV7oVFbv9e-146" style="edgeStyle=orthogonalEdgeStyle;rounded=0;orthogonalLoop=1;jettySize=auto;html=1;" parent="IEi7JNb95hjV7oVFbv9e-80" source="IEi7JNb95hjV7oVFbv9e-141" target="IEi7JNb95hjV7oVFbv9e-142" edge="1">
          <mxGeometry relative="1" as="geometry" />
        </mxCell>
        <mxCell id="IEi7JNb95hjV7oVFbv9e-141" value="Busca lista de estacionamentos" style="rounded=0;whiteSpace=wrap;html=1;" parent="IEi7JNb95hjV7oVFbv9e-80" vertex="1">
          <mxGeometry x="440" y="230" width="220" height="60" as="geometry" />
        </mxCell>
        <mxCell id="IEi7JNb95hjV7oVFbv9e-147" style="edgeStyle=orthogonalEdgeStyle;rounded=0;orthogonalLoop=1;jettySize=auto;html=1;" parent="IEi7JNb95hjV7oVFbv9e-80" source="IEi7JNb95hjV7oVFbv9e-142" target="IEi7JNb95hjV7oVFbv9e-143" edge="1">
          <mxGeometry relative="1" as="geometry" />
        </mxCell>
        <mxCell id="IEi7JNb95hjV7oVFbv9e-142" value="Apresenta lista dos estacionamentos encontrados" style="rounded=0;whiteSpace=wrap;html=1;" parent="IEi7JNb95hjV7oVFbv9e-80" vertex="1">
          <mxGeometry x="440" y="350" width="220" height="60" as="geometry" />
        </mxCell>
        <mxCell id="IEi7JNb95hjV7oVFbv9e-148" style="edgeStyle=orthogonalEdgeStyle;rounded=0;orthogonalLoop=1;jettySize=auto;html=1;" parent="IEi7JNb95hjV7oVFbv9e-80" source="IEi7JNb95hjV7oVFbv9e-143" target="IEi7JNb95hjV7oVFbv9e-136" edge="1">
          <mxGeometry relative="1" as="geometry" />
        </mxCell>
        <mxCell id="IEi7JNb95hjV7oVFbv9e-143" value="Visualiza a lista completa" style="rounded=0;whiteSpace=wrap;html=1;" parent="IEi7JNb95hjV7oVFbv9e-80" vertex="1">
          <mxGeometry x="70" y="350" width="240" height="60" as="geometry" />
        </mxCell>
        <mxCell id="IEi7JNb95hjV7oVFbv9e-157" value="" style="group" parent="IEi7JNb95hjV7oVFbv9e-80" vertex="1" connectable="0">
          <mxGeometry x="630" y="970" width="60" height="65" as="geometry" />
        </mxCell>
        <mxCell id="IEi7JNb95hjV7oVFbv9e-77" value="" style="ellipse;shape=doubleEllipse;whiteSpace=wrap;html=1;aspect=fixed;" parent="IEi7JNb95hjV7oVFbv9e-157" vertex="1">
          <mxGeometry width="60" height="60" as="geometry" />
        </mxCell>
        <mxCell id="IEi7JNb95hjV7oVFbv9e-79" value="" style="ellipse;whiteSpace=wrap;html=1;aspect=fixed;fillColor=#000000;" parent="IEi7JNb95hjV7oVFbv9e-157" vertex="1">
          <mxGeometry x="3.75" y="4.0625" width="52.5" height="52.5" as="geometry" />
        </mxCell>
        <mxCell id="IEi7JNb95hjV7oVFbv9e-161" style="edgeStyle=orthogonalEdgeStyle;rounded=0;orthogonalLoop=1;jettySize=auto;html=1;" parent="IEi7JNb95hjV7oVFbv9e-80" source="IEi7JNb95hjV7oVFbv9e-158" target="IEi7JNb95hjV7oVFbv9e-160" edge="1">
          <mxGeometry relative="1" as="geometry" />
        </mxCell>
        <mxCell id="IEi7JNb95hjV7oVFbv9e-158" value="Preenche formulÃ¡rio com as informaÃ§Ãµes encontradas" style="rounded=0;whiteSpace=wrap;html=1;" parent="IEi7JNb95hjV7oVFbv9e-80" vertex="1">
          <mxGeometry x="540" y="515" width="135" height="60" as="geometry" />
        </mxCell>
        <mxCell id="IEi7JNb95hjV7oVFbv9e-174" style="edgeStyle=orthogonalEdgeStyle;rounded=0;orthogonalLoop=1;jettySize=auto;html=1;" parent="IEi7JNb95hjV7oVFbv9e-80" source="IEi7JNb95hjV7oVFbv9e-160" target="IEi7JNb95hjV7oVFbv9e-168" edge="1">
          <mxGeometry relative="1" as="geometry">
            <Array as="points">
              <mxPoint x="430" y="715" />
              <mxPoint x="430" y="715" />
            </Array>
          </mxGeometry>
        </mxCell>
        <mxCell id="IEi7JNb95hjV7oVFbv9e-160" value="Apresenta formulÃ¡rio para ediÃ§Ã£o" style="rounded=0;whiteSpace=wrap;html=1;" parent="IEi7JNb95hjV7oVFbv9e-80" vertex="1">
          <mxGeometry x="540" y="665" width="135" height="60" as="geometry" />
        </mxCell>
        <mxCell id="IEi7JNb95hjV7oVFbv9e-173" style="edgeStyle=orthogonalEdgeStyle;rounded=0;orthogonalLoop=1;jettySize=auto;html=1;" parent="IEi7JNb95hjV7oVFbv9e-80" source="IEi7JNb95hjV7oVFbv9e-162" target="IEi7JNb95hjV7oVFbv9e-168" edge="1">
          <mxGeometry relative="1" as="geometry">
            <Array as="points">
              <mxPoint x="458" y="695" />
            </Array>
          </mxGeometry>
        </mxCell>
        <mxCell id="IEi7JNb95hjV7oVFbv9e-162" value="Apresenta formulÃ¡rio para criaÃ§Ã£o" style="rounded=0;whiteSpace=wrap;html=1;" parent="IEi7JNb95hjV7oVFbv9e-80" vertex="1">
          <mxGeometry x="390" y="585" width="135" height="60" as="geometry" />
        </mxCell>
        <mxCell id="IEi7JNb95hjV7oVFbv9e-177" style="edgeStyle=orthogonalEdgeStyle;rounded=0;orthogonalLoop=1;jettySize=auto;html=1;" parent="IEi7JNb95hjV7oVFbv9e-80" source="IEi7JNb95hjV7oVFbv9e-164" target="IEi7JNb95hjV7oVFbv9e-176" edge="1">
          <mxGeometry relative="1" as="geometry" />
        </mxCell>
        <mxCell id="IEi7JNb95hjV7oVFbv9e-164" value="Preenche formulÃ¡rio" style="rounded=0;whiteSpace=wrap;html=1;" parent="IEi7JNb95hjV7oVFbv9e-80" vertex="1">
          <mxGeometry x="80" y="675" width="135" height="60" as="geometry" />
        </mxCell>
        <mxCell id="IEi7JNb95hjV7oVFbv9e-175" style="edgeStyle=orthogonalEdgeStyle;rounded=0;orthogonalLoop=1;jettySize=auto;html=1;" parent="IEi7JNb95hjV7oVFbv9e-80" source="IEi7JNb95hjV7oVFbv9e-168" target="IEi7JNb95hjV7oVFbv9e-164" edge="1">
          <mxGeometry relative="1" as="geometry">
            <Array as="points">
              <mxPoint x="310" y="705" />
              <mxPoint x="310" y="705" />
            </Array>
          </mxGeometry>
        </mxCell>
        <mxCell id="IEi7JNb95hjV7oVFbv9e-168" value="" style="line;strokeWidth=4;direction=south;html=1;perimeter=backbonePerimeter;points=[];outlineConnect=0;" parent="IEi7JNb95hjV7oVFbv9e-80" vertex="1">
          <mxGeometry x="330" y="675" width="10" height="57.5" as="geometry" />
        </mxCell>
        <mxCell id="IEi7JNb95hjV7oVFbv9e-184" style="edgeStyle=orthogonalEdgeStyle;rounded=0;orthogonalLoop=1;jettySize=auto;html=1;" parent="IEi7JNb95hjV7oVFbv9e-80" source="IEi7JNb95hjV7oVFbv9e-176" target="IEi7JNb95hjV7oVFbv9e-183" edge="1">
          <mxGeometry relative="1" as="geometry" />
        </mxCell>
        <mxCell id="IEi7JNb95hjV7oVFbv9e-187" value="Confirma" style="edgeLabel;html=1;align=center;verticalAlign=middle;resizable=0;points=[];" parent="IEi7JNb95hjV7oVFbv9e-184" vertex="1" connectable="0">
          <mxGeometry x="-0.3866" y="1" relative="1" as="geometry">
            <mxPoint as="offset" />
          </mxGeometry>
        </mxCell>
        <mxCell id="IEi7JNb95hjV7oVFbv9e-186" style="edgeStyle=orthogonalEdgeStyle;rounded=0;orthogonalLoop=1;jettySize=auto;html=1;" parent="IEi7JNb95hjV7oVFbv9e-80" source="IEi7JNb95hjV7oVFbv9e-176" target="IEi7JNb95hjV7oVFbv9e-185" edge="1">
          <mxGeometry relative="1" as="geometry" />
        </mxCell>
        <mxCell id="IEi7JNb95hjV7oVFbv9e-188" value="Cancela" style="edgeLabel;html=1;align=center;verticalAlign=middle;resizable=0;points=[];" parent="IEi7JNb95hjV7oVFbv9e-186" vertex="1" connectable="0">
          <mxGeometry x="-0.3659" relative="1" as="geometry">
            <mxPoint as="offset" />
          </mxGeometry>
        </mxCell>
        <mxCell id="IEi7JNb95hjV7oVFbv9e-176" value="" style="rhombus;whiteSpace=wrap;html=1;" parent="IEi7JNb95hjV7oVFbv9e-80" vertex="1">
          <mxGeometry x="111.5" y="775" width="72" height="30" as="geometry" />
        </mxCell>
        <mxCell id="IEi7JNb95hjV7oVFbv9e-197" style="edgeStyle=orthogonalEdgeStyle;rounded=0;orthogonalLoop=1;jettySize=auto;html=1;" parent="IEi7JNb95hjV7oVFbv9e-80" source="IEi7JNb95hjV7oVFbv9e-183" target="IEi7JNb95hjV7oVFbv9e-196" edge="1">
          <mxGeometry relative="1" as="geometry" />
        </mxCell>
        <mxCell id="IEi7JNb95hjV7oVFbv9e-183" value="Valida entradas do formulÃ¡rio" style="rounded=0;whiteSpace=wrap;html=1;" parent="IEi7JNb95hjV7oVFbv9e-80" vertex="1">
          <mxGeometry x="377.5" y="760" width="135" height="60" as="geometry" />
        </mxCell>
        <mxCell id="IEi7JNb95hjV7oVFbv9e-194" style="edgeStyle=orthogonalEdgeStyle;rounded=0;orthogonalLoop=1;jettySize=auto;html=1;" parent="IEi7JNb95hjV7oVFbv9e-80" source="IEi7JNb95hjV7oVFbv9e-185" target="IEi7JNb95hjV7oVFbv9e-191" edge="1">
          <mxGeometry relative="1" as="geometry" />
        </mxCell>
        <mxCell id="IEi7JNb95hjV7oVFbv9e-185" value="Cancela alteraÃ§Ãµes" style="rounded=0;whiteSpace=wrap;html=1;" parent="IEi7JNb95hjV7oVFbv9e-80" vertex="1">
          <mxGeometry x="90" y="955" width="135" height="60" as="geometry" />
        </mxCell>
        <mxCell id="IEi7JNb95hjV7oVFbv9e-206" style="edgeStyle=orthogonalEdgeStyle;rounded=0;orthogonalLoop=1;jettySize=auto;html=1;" parent="IEi7JNb95hjV7oVFbv9e-80" source="IEi7JNb95hjV7oVFbv9e-189" target="IEi7JNb95hjV7oVFbv9e-79" edge="1">
          <mxGeometry relative="1" as="geometry" />
        </mxCell>
        <mxCell id="IEi7JNb95hjV7oVFbv9e-189" value="Limpa formulÃ¡rio" style="rounded=0;whiteSpace=wrap;html=1;" parent="IEi7JNb95hjV7oVFbv9e-80" vertex="1">
          <mxGeometry x="416.25" y="977.81" width="102.5" height="45" as="geometry" />
        </mxCell>
        <mxCell id="IEi7JNb95hjV7oVFbv9e-193" style="edgeStyle=orthogonalEdgeStyle;rounded=0;orthogonalLoop=1;jettySize=auto;html=1;" parent="IEi7JNb95hjV7oVFbv9e-80" source="IEi7JNb95hjV7oVFbv9e-191" target="IEi7JNb95hjV7oVFbv9e-189" edge="1">
          <mxGeometry relative="1" as="geometry">
            <Array as="points">
              <mxPoint x="470" y="955" />
            </Array>
          </mxGeometry>
        </mxCell>
        <mxCell id="IEi7JNb95hjV7oVFbv9e-191" value="" style="line;strokeWidth=4;direction=south;html=1;perimeter=backbonePerimeter;points=[];outlineConnect=0;" parent="IEi7JNb95hjV7oVFbv9e-80" vertex="1">
          <mxGeometry x="380" y="912.5" width="10" height="57.5" as="geometry" />
        </mxCell>
        <mxCell id="IEi7JNb95hjV7oVFbv9e-198" style="edgeStyle=orthogonalEdgeStyle;rounded=0;orthogonalLoop=1;jettySize=auto;html=1;" parent="IEi7JNb95hjV7oVFbv9e-80" source="IEi7JNb95hjV7oVFbv9e-196" target="IEi7JNb95hjV7oVFbv9e-160" edge="1">
          <mxGeometry relative="1" as="geometry" />
        </mxCell>
        <mxCell id="IEi7JNb95hjV7oVFbv9e-199" value="Incorreto" style="edgeLabel;html=1;align=center;verticalAlign=middle;resizable=0;points=[];" parent="IEi7JNb95hjV7oVFbv9e-198" vertex="1" connectable="0">
          <mxGeometry x="-0.1493" y="1" relative="1" as="geometry">
            <mxPoint as="offset" />
          </mxGeometry>
        </mxCell>
        <mxCell id="IEi7JNb95hjV7oVFbv9e-201" style="edgeStyle=orthogonalEdgeStyle;rounded=0;orthogonalLoop=1;jettySize=auto;html=1;" parent="IEi7JNb95hjV7oVFbv9e-80" source="IEi7JNb95hjV7oVFbv9e-196" target="IEi7JNb95hjV7oVFbv9e-200" edge="1">
          <mxGeometry relative="1" as="geometry" />
        </mxCell>
        <mxCell id="IEi7JNb95hjV7oVFbv9e-202" value="Correto" style="edgeLabel;html=1;align=center;verticalAlign=middle;resizable=0;points=[];" parent="IEi7JNb95hjV7oVFbv9e-201" vertex="1" connectable="0">
          <mxGeometry x="-0.2232" relative="1" as="geometry">
            <mxPoint as="offset" />
          </mxGeometry>
        </mxCell>
        <mxCell id="IEi7JNb95hjV7oVFbv9e-196" value="" style="rhombus;whiteSpace=wrap;html=1;" parent="IEi7JNb95hjV7oVFbv9e-80" vertex="1">
          <mxGeometry x="571.5" y="775" width="72" height="30" as="geometry" />
        </mxCell>
        <mxCell id="IEi7JNb95hjV7oVFbv9e-203" style="edgeStyle=orthogonalEdgeStyle;rounded=0;orthogonalLoop=1;jettySize=auto;html=1;" parent="IEi7JNb95hjV7oVFbv9e-80" source="IEi7JNb95hjV7oVFbv9e-200" target="IEi7JNb95hjV7oVFbv9e-191" edge="1">
          <mxGeometry relative="1" as="geometry">
            <Array as="points">
              <mxPoint x="370" y="882" />
              <mxPoint x="370" y="925" />
            </Array>
          </mxGeometry>
        </mxCell>
        <mxCell id="IEi7JNb95hjV7oVFbv9e-200" value="Salva dados" style="rounded=0;whiteSpace=wrap;html=1;" parent="IEi7JNb95hjV7oVFbv9e-80" vertex="1">
          <mxGeometry x="540" y="852.5" width="135" height="60" as="geometry" />
        </mxCell>
      </root>
    </mxGraphModel>
  </diagram>
</mxfile>
